<?xml version="1.0" encoding="UTF-8" standalone="no"?>
<!DOCTYPE svg PUBLIC "-//W3C//DTD SVG 1.1//EN"
 "http://www.w3.org/Graphics/SVG/1.1/DTD/svg11.dtd">
<!-- Generated by graphviz version 2.47.1 (20210515.0534)
 -->
<!-- Title: application_state_diagram Pages: 1 -->
<svg width="742pt" height="281pt"
 viewBox="0.00 0.00 742.41 281.00" xmlns="http://www.w3.org/2000/svg" xmlns:xlink="http://www.w3.org/1999/xlink">
<g id="graph0" class="graph" transform="scale(1 1) rotate(0) translate(4 277)">
<title>application_state_diagram</title>
<g id="a_graph0"><a xlink:href="index.html" xlink:title="ALPS Blog" target="_parent">
<polygon fill="white" stroke="transparent" points="-4,4 -4,-277 738.41,-277 738.41,4 -4,4"/>
<text text-anchor="middle" x="367.2" y="-257.8" font-family="Helvetica,sans-Serif" font-size="14.00">ALPS Blog</text>
</a>
</g>
<!-- Blog -->
<g id="node1" class="node">
<title>Blog</title>
<g id="a_node1"><a xlink:href="docs/semantic.Blog.html" xlink:title="&lt;TABLE&gt;" target="_parent">
<polygon fill="lightgray" stroke="black" stroke-width="2" points="384.41,-164 274.41,-164 274.41,-122 384.41,-122 384.41,-164"/>
<text text-anchor="start" x="313.91" y="-146.8" font-family="Times,serif" font-size="14.00">Blog</text>
<text text-anchor="start" x="280.41" y="-131.8" font-family="Times,serif" font-size="14.00">(BlogPosting)</text>
</a>
</g>
</g>
<!-- Blog&#45;&gt;Blog -->
<g id="edge3" class="edge">
<title>Blog&#45;&gt;Blog</title>
<g id="a_edge3"><a xlink:href="docs/unsafe.doPost.html" xlink:title="doPost, collection (unsafe)" target="_parent">
<path fill="none" stroke="black" d="M384.48,-151.21C394.98,-150.23 402.41,-147.49 402.41,-143 402.41,-140.12 399.36,-137.96 394.41,-136.53"/>
<polygon fill="black" stroke="black" points="394.94,-133.07 384.48,-134.79 393.73,-139.96 394.94,-133.07"/>
</a>
</g>
<g id="a_edge3&#45;label"><a xlink:href="docs/unsafe.doPost.html" xlink:title="doPost, collection (unsafe)" target="_parent">
<text text-anchor="start" x="402.41" y="-139.6" font-family="Times,serif" font-size="13.00">doPost, collection (unsafe)</text>
</a>
</g>
</g>
<!-- BlogPosting -->
<g id="node2" class="node">
<title>BlogPosting</title>
<g id="a_node2"><a xlink:href="docs/semantic.BlogPosting.html" xlink:title="&lt;TABLE&gt;" target="_parent">
<polygon fill="lightgray" stroke="black" stroke-width="2" points="170.41,-72 60.41,-72 60.41,0 170.41,0 170.41,-72"/>
<text text-anchor="start" x="73.91" y="-54.8" font-family="Times,serif" font-size="14.00">BlogPosting</text>
<text text-anchor="start" x="99.91" y="-39.8" font-family="Times,serif" font-size="14.00">(id)</text>
<text text-anchor="start" x="66.41" y="-24.8" font-family="Times,serif" font-size="14.00">(dateCreated)</text>
<text text-anchor="start" x="66.41" y="-9.8" font-family="Times,serif" font-size="14.00">(articleBody)</text>
</a>
</g>
</g>
<!-- Blog&#45;&gt;BlogPosting -->
<g id="edge4" class="edge">
<title>Blog&#45;&gt;BlogPosting</title>
<g id="a_edge4"><a xlink:href="docs/safe.goBlogPosting.html" xlink:title="goBlogPosting, item (safe)" target="_parent">
<path fill="none" stroke="black" d="M274.08,-139.43C186.46,-134.79 23.86,-123.62 6.41,-104 -13.29,-81.85 17.17,-64.58 50.85,-53.13"/>
<polygon fill="black" stroke="black" points="51.95,-56.45 60.39,-50.06 49.8,-49.79 51.95,-56.45"/>
</a>
</g>
<g id="a_edge4&#45;label"><a xlink:href="docs/safe.goBlogPosting.html" xlink:title="goBlogPosting, item (safe)" target="_parent">
<text text-anchor="start" x="6.41" y="-93.6" font-family="Times,serif" font-size="13.00">goBlogPosting, item (safe)</text>
</a>
</g>
</g>
<!-- About -->
<g id="node3" class="node">
<title>About</title>
<g id="a_node3"><a xlink:href="docs/semantic.About.html" xlink:title="About" target="_parent">
<polygon fill="lightgray" stroke="black" stroke-width="2" points="526.41,-54 472.41,-54 472.41,-18 526.41,-18 526.41,-54"/>
<text text-anchor="middle" x="499.41" y="-32.3" font-family="Times,serif" font-size="14.00">About</text>
</a>
</g>
</g>
<!-- Blog&#45;&gt;About -->
<g id="edge2" class="edge">
<title>Blog&#45;&gt;About</title>
<g id="a_edge2"><a xlink:href="docs/safe.goAbout.html" xlink:title="goAbout (safe)" target="_parent">
<path fill="none" stroke="black" d="M378.82,-122C390.44,-116.66 402.58,-110.54 413.41,-104 419.43,-100.36 447.49,-78.33 469.94,-60.51"/>
<polygon fill="black" stroke="black" points="472.26,-63.14 477.91,-54.18 467.9,-57.66 472.26,-63.14"/>
</a>
</g>
<g id="a_edge2&#45;label"><a xlink:href="docs/safe.goAbout.html" xlink:title="goAbout (safe)" target="_parent">
<text text-anchor="start" x="431.41" y="-93.6" font-family="Times,serif" font-size="13.00">goAbout (safe)</text>
</a>
</g>
</g>
<!-- BlogPosting&#45;&gt;Blog -->
<g id="edge5" class="edge">
<title>BlogPosting&#45;&gt;Blog</title>
<g id="a_edge5"><a xlink:href="docs/safe.goBlog.html" xlink:title="goBlog, collection (safe)" target="_parent">
<path fill="none" stroke="black" d="M170.63,-69.64C181.28,-76.21 192.28,-83.2 202.41,-90 211.12,-95.85 212.14,-99.09 221.41,-104 234.96,-111.17 250.14,-117.47 264.75,-122.77"/>
<polygon fill="black" stroke="black" points="263.64,-126.09 274.24,-126.11 265.97,-119.49 263.64,-126.09"/>
</a>
</g>
<g id="a_edge5&#45;label"><a xlink:href="docs/safe.goBlog.html" xlink:title="goBlog, collection (safe)" target="_parent">
<text text-anchor="start" x="221.41" y="-93.6" font-family="Times,serif" font-size="13.00">goBlog, collection (safe)</text>
</a>
</g>
</g>
<!-- About&#45;&gt;Blog -->
<g id="edge1" class="edge">
<title>About&#45;&gt;Blog</title>
<g id="a_edge1"><a xlink:href="docs/safe.goBlog.html" xlink:title="goBlog, collection (safe)" target="_parent">
<path fill="none" stroke="black" d="M522.59,-54.05C538.89,-68.1 555.63,-88.21 542.41,-104 523.79,-126.23 450.16,-135.47 394.64,-139.3"/>
<polygon fill="black" stroke="black" points="394.26,-135.82 384.5,-139.95 394.71,-142.8 394.26,-135.82"/>
</a>
</g>
<g id="a_edge1&#45;label"><a xlink:href="docs/safe.goBlog.html" xlink:title="goBlog, collection (safe)" target="_parent">
<text text-anchor="start" x="546.41" y="-93.6" font-family="Times,serif" font-size="13.00">goBlog, collection (safe)</text>
</a>
</g>
</g>
<!-- Index -->
<g id="node4" class="node">
<title>Index</title>
<g id="a_node4"><a xlink:href="docs/semantic.Index.html" xlink:title="Index" target="_parent">
<polygon fill="lightgray" stroke="black" stroke-width="2" points="356.41,-250 302.41,-250 302.41,-214 356.41,-214 356.41,-250"/>
<text text-anchor="middle" x="329.41" y="-228.3" font-family="Times,serif" font-size="14.00">Index</text>
</a>
</g>
</g>
<!-- Index&#45;&gt;Blog -->
<g id="edge6" class="edge">
<title>Index&#45;&gt;Blog</title>
<g id="a_edge6"><a xlink:href="docs/safe.goBlog.html" xlink:title="goBlog, collection (safe)" target="_parent">
<path fill="none" stroke="black" d="M329.41,-213.81C329.41,-202.56 329.41,-187.54 329.41,-174.32"/>
<polygon fill="black" stroke="black" points="332.91,-174.21 329.41,-164.21 325.91,-174.21 332.91,-174.21"/>
</a>
</g>
<g id="a_edge6&#45;label"><a xlink:href="docs/safe.goBlog.html" xlink:title="goBlog, collection (safe)" target="_parent">
<text text-anchor="start" x="329.41" y="-185.6" font-family="Times,serif" font-size="13.00">goBlog, collection (safe)</text>
</a>
</g>
</g>
</g>
</svg>
